<?xml version="1.0" encoding="utf-8"?>
<!-- Generator: Adobe Illustrator 27.5.0, SVG Export Plug-In . SVG Version: 6.00 Build 0)  -->
<svg version="1.1" id="Capa_1" xmlns="http://www.w3.org/2000/svg" xmlns:xlink="http://www.w3.org/1999/xlink" x="0px" y="0px"
	 viewBox="0 0 2047 2199" style="enable-background:new 0 0 2047 2199;" xml:space="preserve">
<path style="fill:#639147;" d="M758.977,491.758c76.473,22.391,156.93,58.465,201.43,79.695
	c-10.035-90.242-55.523-176.578-126.48-233.598c-52.992-43.301-120.004-69.055-188.504-70.938
	c59.703,61.836,77.699,148.633,113.34,224.293L758.977,491.758z"/>
<path style="fill:#639147;" d="M879.957,625.031c21.906-8.238,43.707-16.769,66.293-23.07
	c-51.629-30.684-125.047-61.656-180.832-83.367c-28.547-11.117-57.711-20.5-87.316-28.203
	c-44.887,30.649-86.77,66.555-136.324,89.699c-26.797,12.777-55.926,19.387-84.758,25.801
	c61.941,34.801,130.492,60.547,201.777,65.57c24.902-6.313,48.27-17.5,73.172-23.66C780.09,633.68,829.898,626.422,879.957,625.031z
	"/>
<path style="fill:#939C52;" d="M678.102,490.391c-19.234-5.004-38.652-9.297-58.215-12.883
	c-107.121-19.641-174.699-35.859-217.285-48.664l-1.754,0.625l-0.883-1.422c-77.176-23.523-69.16-35.266-69.16-35.266
	c8,3.742,16.273,7.211,23.266,12.813c51.961,19.613,175.762,42.762,277.055,60.16c20.719,2.59,41.269,6.211,61.707,10.406h0.023
	l0.004,0.004c17.383,2.887,35.727,7.121,54.434,12.273c3.824,0.918,7.648,1.844,11.469,2.773
	c-35.641-75.66-53.637-162.457-113.34-224.293c-19.039-0.152-38.027,0.594-57.016,1.488c-26.598,3.926-53.094,8.555-79.141,15.063
	c-31.766,8.152-62.586,19.289-93.258,30.617l0.25,0.898c-25.305,8.004-49.664,19.438-76.008,23.813
	c-22.125,4.473-44.742,2.488-67.063,2.633c-27.539-6.609-55.672-10.34-83.461-15.66c22.02,46.531,52.84,88.586,85.699,128.055
	c22.32,25.055,44.043,51.504,71.586,71.141l0.398,2.031c28.781,24.856,59.004,48.523,92.207,67.164
	c5.371,4.426,11.484,7.902,17.402,11.73c28.832-6.414,57.961-13.023,84.758-25.801C591.332,556.945,633.215,521.039,678.102,490.391
	z"/>
<path style="fill:#9767A9;" d="M1161.898,735.707c-14.406-13.949-30.172-27.226-47.41-39.652c-3.98-2.867-8.043-5.688-12.184-8.465
	c-1.945-1.305-3.91-2.598-5.895-3.883c-2.645-1.715-5.32-3.41-8.027-5.082c-1.355-0.836-2.719-1.668-4.086-2.5
	c-0.688-0.414-1.375-0.824-2.066-1.234c-1.375-0.828-2.762-1.637-4.156-2.457c-12.555-7.309-25.773-14.215-39.691-20.66
	c-14.168-5.215-28.535-9.844-43.148-13.719c-37.582-9.695-76.551-12.625-115.277-13.023c-50.059,1.391-99.867,8.648-147.988,22.77
	c-24.902,6.16-48.27,17.348-73.172,23.66c-9.547,6.559-19.59,12.281-29.977,17.398c-77.898,39.867-146.152,96.938-203.219,163
	l0.547,1.441c-54.734,62.535-94.848,137.5-120.098,216.539c-33.559,107.023-35.895,222.848-10.242,331.867l1.09,0.695
	c24.512,15.016,48.617,30.824,74.223,44c44.836,22.414,88.879,47.117,137.051,61.938c106.777,39.52,222.453,51.297,335.547,41.059
	c126.66-15.211,248.551-68.852,344.145-153.605c0.789-0.742,1.57-1.492,2.352-2.238l0.707-0.676
	c0.574-0.547,1.137-1.094,1.703-1.637l0.719-0.699c0.543-0.523,1.09-1.055,1.629-1.586l0.813-0.793
	c0.516-0.504,1.031-1.012,1.543-1.52l0.809-0.797c0.59-0.59,1.18-1.176,1.766-1.766l0.527-0.527
	c1.574-1.582,3.141-3.176,4.695-4.777l0.328-0.34c0.703-0.723,1.395-1.441,2.09-2.164l0.223-0.234
	c51.176-54.383,81.805-122.156,94.691-194.453C1330.281,1023.531,1273.266,843.539,1161.898,735.707z"/>
<path style="fill:#815BA3;" d="M1647.117,1236.051c-2.02-159.578-62.055-276.457-143.699-361.742
	c-121.57-127.004-291.063-183.961-388.281-207.559c-46.719-11.34-76.754-14.977-76.754-14.977
	c13.918,6.445,27.137,13.352,39.691,20.66c1.395,0.82,2.781,1.629,4.156,2.457c0.691,0.41,1.379,0.82,2.066,1.234
	c1.367,0.832,2.73,1.664,4.086,2.5c2.707,1.672,5.383,3.367,8.027,5.082c1.984,1.285,3.949,2.578,5.895,3.883
	c4.141,2.777,8.203,5.598,12.184,8.465c17.238,12.426,33.008,25.703,47.41,39.652c112.164,108.609,168.676,288.024,140.559,445.879
	c-12.887,72.297-43.516,140.07-94.691,194.453l-0.117,0.121l-0.105,0.113c-0.695,0.723-1.387,1.441-2.09,2.164l-0.328,0.34
	c-1.555,1.602-3.121,3.195-4.695,4.777l-0.527,0.527c-0.586,0.59-1.176,1.176-1.766,1.766l-0.809,0.797
	c-0.512,0.508-1.027,1.016-1.543,1.52l-0.813,0.793c-0.539,0.531-1.086,1.063-1.629,1.586l-0.719,0.699
	c-0.566,0.543-1.129,1.09-1.703,1.637l-0.707,0.676c-0.781,0.746-1.563,1.496-2.352,2.238
	c-95.594,84.754-217.484,138.395-344.145,153.605c-113.094,10.238-228.77-1.539-335.547-41.059
	c-48.172-14.82-92.215-39.523-137.051-61.938c-25.605-13.176-49.711-28.984-74.223-44c29.035,126.766,98.43,241.695,187.363,335.551
	l1.094,0.445c26.246,11.23,49.012,29.035,74.715,41.457c121.191,66.215,258.246,103.848,396.492,105.285
	c175.43,3.281,353.734-57.363,483.781-176.621c118.805-107.621,194.82-261.18,206.148-421.297
	c0.621-17.008,0.801-34.094,0.426-51.168L1647.117,1236.051z"/>
<path style="fill:#673B89;" d="M1856.172,1287.668c-7.656-195.211-99.668-388.73-255.461-508.637l0.098-0.695
	c-135.301-105.578-317.902-148.512-485.672-111.586c97.219,23.598,266.711,80.555,388.281,207.559
	c81.645,85.285,141.68,202.164,143.699,361.734l-0.199,0.012c0.375,17.074,0.195,34.16-0.426,51.168
	c-11.328,160.117-87.344,313.676-206.148,421.297c-130.047,119.258-308.352,179.902-483.781,176.621
	c-138.246-1.438-275.301-39.07-396.492-105.285c-25.703-12.422-48.469-30.227-74.715-41.457
	c38.476,40.762,81.672,77.004,127.754,108.965c161.855,111.996,359.41,175.578,556.91,167.672
	c112.492-4.473,224.344-34.594,322.172-90.77c126.418-72.926,232.348-182.488,296.527-313.977
	C1837.93,1510.672,1860.551,1398.574,1856.172,1287.668z"/>
<path style="fill:#3C1332;" d="M747.293,488.438c-18.707-5.152-37.051-9.387-54.434-12.273l-0.004-0.004h-0.023
	c-18.875-3.133-39.762-6.641-61.707-10.406c-101.293-17.398-225.094-40.547-277.055-60.16c-11.91-4.492-20.043-8.801-23.266-12.813
	c0,0-8.016,11.742,69.16,35.266c0.867,0.262,1.746,0.527,2.637,0.797c42.586,12.805,110.164,29.023,217.285,48.664
	c19.563,3.586,38.981,7.879,58.215,12.883c29.605,7.703,58.77,17.086,87.316,28.203c55.785,21.711,129.203,52.684,180.832,83.367
	c20.66,12.281,37.832,24.516,48.984,36.094c14.613,3.875,28.98,8.504,43.148,13.719c-1.539-86.398,23.418-171.5,60.699-248.801
	c33.805-67.711,79.438-130.941,140.086-176.969c-17.203-10.145-31.117-24.906-39.922-42.75
	c-69.695,43.148-120.742,111.301-155.891,184.324c-31.91,68.453-50.859,143.906-50.957,219.582
	c-4.969-2.527-16.223-8.188-31.992-15.707c-44.5-21.23-124.957-57.305-201.43-79.695
	C755.07,490.613,751.172,489.508,747.293,488.438z"/>
<path style="fill:#FFF0D6;" d="M520.844,1058.285c16.102,9.352,35.125-1.504,44.398-15.367
	c65.957-91.535,152.797-170.211,256.434-216.594c26.711-11.981,59.144-18.301,76.313-44.484
	c13.492-18.984,4.641-45.082-11.52-59.324c-26.531-24.102-62.984-35.012-98.27-35.656c-28.582-0.535-56.832,6.313-83.207,16.992
	c-69.148,28.066-124.723,83.414-162.703,146.762c-26.473,46.051-44.293,98.688-43.598,152.25
	C499.797,1022.621,502.699,1046.504,520.844,1058.285z"/>
<path style="fill:#FFF0D6;" d="M463.367,1238.434c15.137-0.633,29.008-10.082,36.75-22.996c4.387-7.328,6.805-15.766,6.359-24.34
	c-2.16-41.637-47.25-47.496-68.816-13.035C420.969,1204.73,428.902,1239.852,463.367,1238.434z"/>
<path style="fill:#FFF0D6;" d="M984.234,807.844c15.918,12.477,37.113,15.836,57.336,16.34c16.879,0.418,33.797-0.855,50.422-3.793
	c7.762-1.375,15.793-3.262,21.828-8.34c56.664-47.637-58.922-67.875-80.32-73.688c-22.574-6.133-51.375-4.398-63.285,15.734
	C959.918,771.512,968.313,795.371,984.234,807.844z"/>
<path style="fill:#673B89;" d="M979.785,1780.539c15.988,7.777,35.391,7.75,51.645,0.816c7.867-3.359,14.992-8.332,20.641-14.828
	c39.461-45.383-8.262-101.828-60.121-87.164C941.297,1693.695,927.48,1755.105,979.785,1780.539z"/>
<path style="fill:#673B89;" d="M850.832,1722.109c14.613-7.277,20.457-27.918,12.02-41.891
	c-15.605-25.848-39.84-10.324-51.902,10.863C794.824,1719.41,829.418,1732.762,850.832,1722.109z"/>
<path style="fill:#673B89;" d="M1525.074,1275.492c19.602,13.523,47.816,5.484,65.094-10.91
	c37.844-35.906,29.875-102.016-22.73-118.773c-57.984-18.469-69.488,53.789-62.039,95.848
	C1507.738,1254.848,1514.051,1267.883,1525.074,1275.492z"/>
<path style="fill:#673B89;" d="M1325.453,855.875c9.422,6.438,21.887,9.293,32.465,5.035c19.133-7.703,23.203-34.445,14.996-53.359
	c-9.52-21.945-35.035-44.43-58.672-27.574C1284.703,801.051,1300.535,838.82,1325.453,855.875z"/>
</svg>
